<?xml version="1.0" encoding="UTF-8"?>
<svg version="1.1" xmlns="http://www.w3.org/2000/svg" width="512" height="512">
<path d="M0 0 C1.01251579 -0.01226624 1.01251579 -0.01226624 2.04548645 -0.02478027 C4.28316358 -0.04962713 6.52077729 -0.06614862 8.75854492 -0.08056641 C9.52274939 -0.08589008 10.28695385 -0.09121376 11.07431602 -0.09669876 C15.11952079 -0.12342772 19.16469473 -0.14280307 23.20996094 -0.15722656 C27.38663035 -0.17387113 31.56251016 -0.21864683 35.73888111 -0.26959801 C38.95168454 -0.30326775 42.16430051 -0.3148036 45.37726402 -0.32045364 C46.91666382 -0.32716734 48.45605122 -0.34239275 49.99527931 -0.36634445 C52.15245353 -0.39799567 54.30749793 -0.39803455 56.46484375 -0.390625 C57.69125076 -0.39871185 58.91765778 -0.40679871 60.18122864 -0.41513062 C64.34575613 0.36509048 65.76605787 1.97260954 68.42651367 5.19287109 C70.2565918 7.98168945 70.2565918 7.98168945 71.95776367 11.03271484 C72.60487305 12.180625 73.25198242 13.32853516 73.91870117 14.51123047 C74.58842873 15.71735718 75.25770171 16.92373643 75.92651367 18.13037109 C76.5581543 19.25894531 77.18979492 20.38751953 77.84057617 21.55029297 C78.16288208 22.12851303 78.48518799 22.70673309 78.81726074 23.30247498 C79.50437712 24.5154906 80.20630376 25.72021601 80.92150879 26.91688538 C83.24009434 30.84163026 85.07369712 34.73817383 86.7487793 38.98168945 C89.41379863 45.17160079 92.07325935 50.90606701 97.42651367 55.19287109 C106.68705444 58.55069737 117.08378209 57.54620099 126.76855469 56.9921875 C131.07463465 56.76906445 135.38540993 56.69430639 139.69594574 56.60336781 C143.04879139 56.53078021 146.39020225 56.42751934 149.74060059 56.26481628 C150.93954956 56.21360123 152.13849854 56.16238617 153.3737793 56.10961914 C154.42488892 56.05436569 155.47599854 55.99911224 156.55895996 55.94218445 C159.95020719 56.23865331 161.70742791 57.18201845 164.42651367 59.19287109 C166.24072266 61.72290039 166.24072266 61.72290039 167.92260742 64.76708984 C168.557229 65.89880615 169.19185059 67.03052246 169.84570312 68.1965332 C170.51854743 69.42443855 171.19131593 70.65238544 171.86401367 71.88037109 C172.56463881 73.13711679 173.2667236 74.39304978 173.97021484 75.64819336 C175.05063777 77.57621848 176.13014569 79.50469165 177.20509338 81.43577576 C180.79643285 87.88509097 184.50646943 94.26168958 188.23901367 100.63037109 C188.81901123 101.62319092 189.39900879 102.61601074 189.99658203 103.63891602 C192.97607295 108.75138903 192.97607295 108.75138903 196.06445312 113.7980957 C198.0737603 117.33086037 198.0311162 119.13800344 197.42651367 123.19287109 C195.59714026 127.32624125 193.3438662 131.17645573 191.05151367 135.06787109 C190.41536133 136.17396729 189.77920898 137.28006348 189.1237793 138.41967773 C187.23981852 141.68649039 185.33585697 144.94084483 183.42651367 148.19287109 C182.44421719 149.88136748 181.46239033 151.57013724 180.48120117 153.25927734 C174.26448605 163.91155286 174.26448605 163.91155286 171.41088867 168.27490234 C170.83854492 169.15533203 170.26620117 170.03576172 169.67651367 170.94287109 C169.18666992 171.65958984 168.69682617 172.37630859 168.19213867 173.11474609 C167.09487481 176.09303372 168.12062536 177.33875419 169.42651367 180.19287109 C170.48670448 182.16813415 171.58122486 184.12516161 172.69995117 186.06787109 C173.6822168 187.77885986 173.6822168 187.77885986 174.68432617 189.52441406 C175.03011719 190.12332458 175.3759082 190.72223511 175.73217773 191.33929443 C176.81150255 193.21018572 177.88529286 195.08415681 178.95776367 196.95898438 C182.31851516 202.8279999 185.70426659 208.67968068 189.15307617 214.49755859 C189.70946777 215.44501953 190.26585937 216.39248047 190.83911133 217.36865234 C191.87209822 219.12514313 192.91553807 220.87554212 193.97094727 222.61865234 C198.42719077 230.22847301 198.42719077 230.22847301 197.42651367 235.19287109 C196.11416345 238.29048354 194.48875834 241.16071212 192.80151367 244.06787109 C192.31440918 244.92920654 191.82730469 245.79054199 191.32543945 246.67797852 C189.70784936 249.52539416 188.06929479 252.35992144 186.42651367 255.19287109 C185.56026367 256.69503174 185.56026367 256.69503174 184.67651367 258.22753906 C181.16032409 264.32014716 177.61353826 270.39402087 174.04077148 276.45361328 C172.55752866 278.97054983 171.08134963 281.49149867 169.60620117 284.01318359 C168.79692518 285.38594502 167.98707944 286.75837083 167.17651367 288.13037109 C166.81799316 288.74501221 166.45947266 289.35965332 166.09008789 289.99291992 C163.65682089 294.07771749 163.65682089 294.07771749 161.42651367 295.19287109 C159.18196291 295.32607168 156.93346064 295.39415054 154.68530273 295.43334961 C153.99239136 295.44634598 153.29947998 295.45934235 152.58557129 295.47273254 C145.33888927 295.59945989 138.09104671 295.65619279 130.84350586 295.70776367 C127.40535242 295.73451245 123.96858476 295.78324344 120.53100586 295.85131836 C116.37882079 295.93333311 112.22795563 295.97595626 108.07500458 295.99082756 C106.49445741 296.00306524 104.91395316 296.02907607 103.33386993 296.06927681 C91.02912448 296.36664526 91.02912448 296.36664526 87.21855164 293.57572937 C85.63088651 291.51848678 84.51976958 289.54524893 83.42651367 287.19287109 C82.77465088 286.14446045 82.12278809 285.0960498 81.45117188 284.01586914 C80.88229248 283.00564697 80.31341309 281.9954248 79.72729492 280.95458984 C79.24645699 280.10692802 79.24645699 280.10692802 78.75590515 279.24214172 C77.74505159 277.45777528 76.74171744 275.66932736 75.73901367 273.88037109 C75.09512695 272.74019531 74.45124023 271.60001953 73.7878418 270.42529297 C73.46285706 269.84613632 73.13787231 269.26697968 72.80303955 268.67027283 C72.12091151 267.47317941 71.42353757 266.28466 70.71209717 265.10475159 C68.5762294 261.51001355 66.97083426 258.03875488 65.59350586 254.08520508 C63.458763 248.58096379 61.32033452 243.73059828 56.42651367 240.19287109 C46.84517429 237.24699997 36.19703878 238.27529003 26.29467773 238.77441406 C20.40402155 239.0526623 14.50795866 239.16349347 8.61222458 239.27448463 C6.56147578 239.32870675 4.51716879 239.42928824 2.46865845 239.5377655 C-6.52041306 239.83916023 -6.52041306 239.83916023 -9.43183899 238.05236816 C-10.73632812 236.55102539 -10.73632812 236.55102539 -12.57348633 233.19287109 C-13.17217529 232.24557129 -13.77086426 231.29827148 -14.38769531 230.32226562 C-14.94271729 229.33339355 -15.49773926 228.34452148 -16.06958008 227.32568359 C-17.02175415 225.64224854 -17.02175415 225.64224854 -17.99316406 223.92480469 C-18.66578506 222.72250108 -19.33839218 221.52018972 -20.01098633 220.31787109 C-21.42513306 217.81123611 -22.84334776 215.30690745 -24.26098633 212.80224609 C-24.79658424 211.85380325 -24.79658424 211.85380325 -25.34300232 210.88619995 C-29.59057026 203.37267736 -33.95515248 195.92869574 -38.31933594 188.48242188 C-39.13930054 187.0822583 -39.13930054 187.0822583 -39.97583008 185.65380859 C-40.45528076 184.83702637 -40.93473145 184.02024414 -41.42871094 183.17871094 C-43.51077055 179.56696581 -43.86783641 177.41489465 -43.57348633 173.19287109 C-42.51049805 170.59765625 -42.51049805 170.59765625 -41.00317383 167.98193359 C-40.44275391 166.99547852 -39.88233398 166.00902344 -39.30493164 164.99267578 C-38.69230469 163.94499023 -38.07967773 162.89730469 -37.44848633 161.81787109 C-36.82554688 160.72893555 -36.20260742 159.64 -35.56079102 158.51806641 C-33.58066457 155.06698888 -31.58144082 151.62779096 -29.57348633 148.19287109 C-28.911875 147.06010742 -28.25026367 145.92734375 -27.56860352 144.76025391 C-26.91794922 143.6474707 -26.26729492 142.5346875 -25.59692383 141.38818359 C-24.96415527 140.30585449 -24.33138672 139.22352539 -23.67944336 138.10839844 C-22.4640771 136.03546514 -21.24387617 133.96535707 -20.01831055 131.8984375 C-19.18710693 130.48957275 -19.18710693 130.48957275 -18.33911133 129.05224609 C-17.85216797 128.23208008 -17.36522461 127.41191406 -16.86352539 126.56689453 C-16.4378125 125.7834668 -16.01209961 125.00003906 -15.57348633 124.19287109 C-15.1284375 123.38664307 -14.68338867 122.58041504 -14.22485352 121.74975586 C-13.30001824 119.13057095 -13.30001824 119.13057095 -14.59301758 116.43579102 C-15.18469727 115.44168213 -15.77637695 114.44757324 -16.38598633 113.42333984 C-17.37211914 111.73567505 -17.37211914 111.73567505 -18.37817383 110.01391602 C-19.10993066 108.80272591 -19.84170181 107.59154447 -20.57348633 106.38037109 C-21.30715907 105.13319696 -22.0389117 103.88489141 -22.76879883 102.63549805 C-25.71094469 97.61517171 -28.70582497 92.62690646 -31.71411133 87.64599609 C-33.0511002 85.43128933 -34.38334748 83.21371127 -35.71020508 80.99291992 C-36.92701121 78.9602861 -38.15821675 76.93618419 -39.40551758 74.92211914 C-44.82589319 65.88789533 -44.82589319 65.88789533 -43.57348633 60.19287109 C-41.66191833 56.08256777 -39.36524119 52.2503039 -37.01098633 48.38037109 C-35.98809949 46.65746531 -34.96523917 44.9345431 -33.94396973 43.2106781 C-32.87823196 41.41541599 -31.80624153 39.6239814 -30.73413086 37.83251953 C-28.58543522 34.22881023 -26.4923527 30.59493118 -24.41333008 26.95068359 C-24.07855148 26.36472916 -23.74377289 25.77877472 -23.39884949 25.17506409 C-21.7926682 22.36283275 -20.18888295 19.54925221 -18.58691406 16.73461914 C-9.03241019 0.09490082 -9.03241019 0.09490082 0 0 Z M-0.57348633 15.19287109 C-0.92605499 15.82087616 -1.27862366 16.44888123 -1.64187622 17.09591675 C-13.22819565 37.71523784 -13.22819565 37.71523784 -17.94067383 45.51318359 C-18.83206055 46.99238281 -18.83206055 46.99238281 -19.74145508 48.50146484 C-20.92534761 50.45475207 -22.11873548 52.40230343 -23.31958008 54.34521484 C-23.89579102 55.30814453 -24.47200195 56.27107422 -25.06567383 57.26318359 C-25.57469238 58.0960791 -26.08371094 58.92897461 -26.6081543 59.78710938 C-27.82114572 62.81007787 -27.59366438 64.12109043 -26.57348633 67.19287109 C-25.65661081 69.05262179 -24.66255508 70.87527369 -23.61645508 72.66552734 C-22.99706055 73.73222656 -22.37766602 74.79892578 -21.73950195 75.89794922 C-20.76013672 77.55987305 -20.76013672 77.55987305 -19.76098633 79.25537109 C-19.15061523 80.3053125 -18.54024414 81.35525391 -17.91137695 82.43701172 C-16.93718172 84.10691911 -15.96133668 85.77644603 -14.94018555 87.4180603 C-12.73802819 90.99355927 -10.97328843 94.5451112 -9.36450195 98.42773438 C-5.04201754 108.1917758 -5.04201754 108.1917758 3.2414856 114.39309692 C10.28210499 116.1321738 17.27098132 116.21556646 24.48852539 116.02001953 C28.30513362 115.94279785 32.06352008 116.10016512 35.87573242 116.27880859 C48.30295696 116.56728717 48.30295696 116.56728717 58.88223267 110.90856934 C63.3177112 105.13536064 66.31205578 98.75491613 69.15637207 92.08435059 C70.77773891 88.39330625 72.7338669 85.1427566 74.89135742 81.73974609 C75.48239258 80.75232422 76.07342773 79.76490234 76.68237305 78.74755859 C77.8534281 76.79444006 79.03384252 74.84691558 80.22143555 72.90380859 C80.79313477 71.94216797 81.36483398 70.98052734 81.95385742 69.98974609 C82.45651123 69.15797852 82.95916504 68.32621094 83.47705078 67.46923828 C84.59520363 64.78843161 84.48889168 63.85084614 83.42651367 61.19287109 C82.07752023 58.57129778 80.69047161 56.00672729 79.23901367 53.44287109 C78.8077417 52.67442871 78.37646973 51.90598633 77.93212891 51.11425781 C74.00556815 44.15094619 70.00396078 37.23049902 65.98901367 30.31787109 C65.38613525 29.27791992 64.78325684 28.23796875 64.16210938 27.16650391 C63.59065186 26.1877832 63.01919434 25.2090625 62.43041992 24.20068359 C61.92325439 23.33072754 61.41608887 22.46077148 60.89355469 21.56445312 C60.40943115 20.78183105 59.92530762 19.99920898 59.42651367 19.19287109 C59.01619904 18.49332306 58.6058844 17.79377502 58.18313599 17.07302856 C56.5553477 14.96013346 56.5553477 14.96013346 53.90180969 14.71185303 C52.39290413 14.7251767 52.39290413 14.7251767 50.85351562 14.73876953 C49.71255936 14.73907166 48.57160309 14.73937378 47.39607239 14.73968506 C45.54909004 14.77065277 45.54909004 14.77065277 43.66479492 14.80224609 C42.4038652 14.80790588 41.14293549 14.81356567 39.84379578 14.81939697 C36.49456099 14.83801053 33.14641651 14.87393544 29.79748535 14.91821289 C26.37900204 14.95916252 22.96040603 14.97740722 19.54174805 14.99755859 C12.83636818 15.04170899 6.13150388 15.10868467 -0.57348633 15.19287109 Z M92.09448242 76.91552734 C91.13967684 79.31628894 90.25047523 81.74411687 89.42651367 84.19287109 C88.17851248 86.43357833 86.88235498 88.64813379 85.53979492 90.83349609 C84.27091234 93.03549541 83.00398226 95.238621 81.73901367 97.44287109 C81.10157227 98.54888672 80.46413086 99.65490234 79.80737305 100.79443359 C78.57296594 102.93967773 77.34494796 105.08861475 76.12426758 107.24169922 C75.04440093 109.11880995 73.93497591 110.97944866 72.78735352 112.81591797 C72.31120605 113.59515625 71.83505859 114.37439453 71.34448242 115.17724609 C70.92320068 115.83950195 70.50191895 116.50175781 70.06787109 117.18408203 C69.13148828 120.11691712 70.06358275 121.48695084 71.42651367 124.19287109 C72.36696601 125.99438694 73.3381393 127.78006317 74.33276367 129.55224609 C74.90736328 130.57817871 75.48196289 131.60411133 76.07397461 132.66113281 C76.6853125 133.74410645 77.29665039 134.82708008 77.92651367 135.94287109 C78.86285645 137.60793701 78.86285645 137.60793701 79.81811523 139.30664062 C88.25425357 154.47157027 88.25425357 154.47157027 97.42651367 169.19287109 C99.84202186 169.69343824 99.84202186 169.69343824 102.69897461 169.67626953 C103.80061951 169.70509216 104.9022644 169.73391479 106.03729248 169.76361084 C107.23307922 169.77636047 108.42886597 169.78911011 109.66088867 169.80224609 C110.88680725 169.81934631 112.11272583 169.83644653 113.37579346 169.85406494 C115.97497768 169.88244852 118.57427042 169.90203027 121.17358398 169.91357422 C125.14738364 169.93322008 129.11786707 170.03566534 133.09057617 170.13037109 C135.61398598 170.14996471 138.13742914 170.16571477 140.66088867 170.17724609 C141.84857849 170.2142865 143.03626831 170.2513269 144.25994873 170.28948975 C150.42117598 170.35468762 150.42117598 170.35468762 155.4670105 167.26605225 C157.02342001 164.9659911 158.24904362 162.7047108 159.42651367 160.19287109 C160.2016428 158.82850216 160.9840799 157.46822223 161.77807617 156.11474609 C162.53990094 154.72631507 163.29758847 153.33560742 164.05151367 151.94287109 C166.87801903 146.75475707 169.75174748 141.60986568 172.77416992 136.53271484 C173.32959473 135.59137695 173.88501953 134.65003906 174.45727539 133.68017578 C175.54503029 131.84192451 176.64399975 130.01025411 177.75512695 128.18603516 C178.24867676 127.3465332 178.74222656 126.50703125 179.25073242 125.64208984 C179.91721802 124.53353638 179.91721802 124.53353638 180.59716797 123.40258789 C181.67555328 120.52932754 181.35234629 119.10003034 180.42651367 116.19287109 C179.22979354 113.69900467 179.22979354 113.69900467 177.68823242 111.19287109 C176.82681641 109.73494141 176.82681641 109.73494141 175.94799805 108.24755859 C175.3427832 107.23951172 174.73756836 106.23146484 174.11401367 105.19287109 C172.94989792 103.23534312 171.78719932 101.27697188 170.62573242 99.31787109 C169.9945752 98.25439453 169.36341797 97.19091797 168.71313477 96.09521484 C163.8567363 87.84960274 159.15922015 79.50984875 154.42651367 71.19287109 C147.13401883 70.89054643 139.8428894 70.66015056 132.54537964 70.51931286 C129.15567558 70.4516784 125.77027949 70.36015114 122.38305664 70.2121582 C105.16813514 68.36831323 105.16813514 68.36831323 92.09448242 76.91552734 Z M-3.17895508 131.41357422 C-4.01535382 132.98694261 -4.81786393 134.57915311 -5.57348633 136.19287109 C-6.43067261 137.62590576 -6.43067261 137.62590576 -7.30517578 139.08789062 C-7.98906372 140.31934814 -7.98906372 140.31934814 -8.68676758 141.57568359 C-9.20867676 142.50848145 -9.73058594 143.4412793 -10.26831055 144.40234375 C-11.06906006 145.84552979 -11.06906006 145.84552979 -11.88598633 147.31787109 C-18.26903651 158.77721975 -18.26903651 158.77721975 -21.45239258 163.84912109 C-22.09084106 164.86981689 -22.09084106 164.86981689 -22.7421875 165.91113281 C-23.52267393 167.14481001 -24.31510646 168.37104403 -25.12158203 169.58789062 C-26.68803605 172.06930709 -27.63627454 173.60786439 -27.31713867 176.58129883 C-26.53634997 179.32328724 -25.50472338 181.46713836 -24.08911133 183.93896484 C-23.571875 184.84888184 -23.05463867 185.75879883 -22.52172852 186.69628906 C-21.96130859 187.66453613 -21.40088867 188.6327832 -20.82348633 189.63037109 C-20.25017578 190.63213379 -19.67686523 191.63389648 -19.08618164 192.66601562 C-13.81398941 201.84858451 -8.45909292 210.98409177 -3.05786133 220.09130859 C-2.37288574 221.24638916 -2.37288574 221.24638916 -1.67407227 222.42480469 C-0.69436751 224.1475322 -0.69436751 224.1475322 0.42651367 225.19287109 C8.21029158 225.9805955 16.11679745 225.93583823 23.93334961 226.09228516 C26.5820249 226.15900405 29.23014228 226.25442686 31.87670898 226.37939453 C45.63366904 227.66660325 45.63366904 227.66660325 58.41293335 223.88647461 C61.58550709 220.5038491 63.16544441 216.56760175 64.66400146 212.23339844 C65.87499736 208.99270246 67.64160417 206.23848122 69.44604492 203.28662109 C70.71172849 201.08948769 71.97606585 198.89157819 73.23901367 196.69287109 C74.20097656 195.02224609 74.20097656 195.02224609 75.18237305 193.31787109 C76.40349392 191.19637878 77.61890414 189.07158468 78.82739258 186.94287109 C79.78714169 185.29239567 80.77982067 183.65954052 81.83422852 182.06787109 C83.16324499 180.13394961 83.16324499 180.13394961 84.42651367 177.19287109 C83.34564434 172.90516459 81.52124011 169.31998454 79.30151367 165.51708984 C78.68163574 164.449021 78.06175781 163.38095215 77.4230957 162.28051758 C76.4347876 160.59744507 76.4347876 160.59744507 75.42651367 158.88037109 C74.74882947 157.71794736 74.0715861 156.55526652 73.39477539 155.39233398 C71.41179515 151.9887311 69.41905176 148.59088746 67.42651367 145.19287109 C66.36621675 143.37539669 65.30628029 141.55771191 64.24682617 139.73974609 C63.34888669 138.20299666 62.4504887 136.66651498 61.55151367 135.13037109 C61.1415918 134.42936279 60.73166992 133.72835449 60.30932617 133.00610352 C58.60822847 129.92281337 58.60822847 129.92281337 56.42651367 127.19287109 C54.71050234 127.05220762 52.98878208 126.98054673 51.26757812 126.93652344 C50.1658577 126.90754974 49.06413727 126.87857605 47.92903137 126.84872437 C42.87114729 126.75155402 37.81341128 126.67716874 32.75488281 126.62304688 C30.08477411 126.59186218 27.41982178 126.53186157 24.75 126.45898438 C20.9084297 126.35564082 17.07004048 126.31112842 13.22729492 126.27880859 C11.44105461 126.21383682 11.44105461 126.21383682 9.61872864 126.14755249 C3.66598551 126.16112504 0.30440144 126.27636653 -3.17895508 131.41357422 Z M86.84936523 199.46875 C86.4410144 200.4524054 86.03266357 201.43606079 85.61193848 202.44952393 C84.01442318 206.14654381 81.97997397 209.4404544 79.80541992 212.81787109 C78.53286392 214.94261925 77.26070937 217.06760792 75.98901367 219.19287109 C75.31547852 220.28341797 74.64194336 221.37396484 73.94799805 222.49755859 C73.32344727 223.55201172 72.69889648 224.60646484 72.05541992 225.69287109 C71.49927002 226.61068359 70.94312012 227.52849609 70.37011719 228.47412109 C69.10388246 232.12244965 69.86096117 233.71874057 71.42651367 237.19287109 C72.32138886 238.9307207 73.2690327 240.6422221 74.26245117 242.32568359 C74.83350586 243.29892578 75.40456055 244.27216797 75.99291992 245.27490234 C76.58975586 246.27908203 77.1865918 247.28326172 77.80151367 248.31787109 C78.63875977 249.74292969 78.63875977 249.74292969 79.49291992 251.19677734 C80.72082525 253.28123474 81.98255734 255.34598864 83.27026367 257.39404297 C85.02667788 260.30177748 86.29199547 263.26081263 87.55151367 266.41357422 C90.01891446 272.07901359 92.47879117 277.30834294 97.42651367 281.19287109 C106.09636077 284.22162068 115.66284881 283.18009258 124.67352295 282.56616211 C128.0300552 282.35955592 131.38964406 282.26982521 134.75073242 282.16943359 C141.31722325 281.95000328 147.87019265 281.61643583 154.42651367 281.19287109 C155.06210205 280.04214111 155.69769043 278.89141113 156.35253906 277.70581055 C161.42538873 268.53765458 166.55779675 259.41592917 171.86401367 250.38037109 C172.46149414 249.35878906 173.05897461 248.33720703 173.67456055 247.28466797 C178.21922858 239.52064849 178.21922858 239.52064849 180.11743164 236.51904297 C181.62625624 234.29997133 181.62625624 234.29997133 181.37573242 231.86865234 C180.04987558 228.13115465 178.20658795 224.81606143 176.23901367 221.38037109 C175.59210571 220.2344751 175.59210571 220.2344751 174.93212891 219.06542969 C173.44069163 216.43513832 171.93533024 213.81323118 170.42651367 211.19287109 C169.83418945 210.16274902 169.24186523 209.13262695 168.6315918 208.07128906 C166.75631777 204.8168788 164.87450391 201.56637224 162.98901367 198.31787109 C162.38613525 197.27783936 161.78325684 196.23780762 161.16210938 195.16625977 C160.59065186 194.18761963 160.01919434 193.20897949 159.43041992 192.20068359 C158.92325439 191.33072754 158.41608887 190.46077148 157.89355469 189.56445312 C157.40943115 188.78183105 156.92530762 187.99920898 156.42651367 187.19287109 C156.01005081 186.50052368 155.59358795 185.80817627 155.164505 185.09484863 C152.85818176 182.57091487 151.52734453 182.59410046 148.15161133 182.38964844 C147.0726358 182.31894135 145.99366028 182.24823425 144.88198853 182.17538452 C139.91782344 181.96992212 134.95587963 181.7901303 129.98852539 181.68261719 C127.37995979 181.60658929 124.77230438 181.48407026 122.16821289 181.31347656 C103.61507198 180.10774656 94.69117775 181.87349627 86.84936523 199.46875 Z " fill="#FFFFFF" transform="translate(91.573486328125,138.80712890625)"/>
<path d="M0 0 C0.67501053 -0.0065712 1.35002106 -0.0131424 2.04548645 -0.01991272 C4.28317371 -0.03965067 6.52079382 -0.05130962 8.75854492 -0.0612793 C9.52274939 -0.06535482 10.28695385 -0.06943035 11.07431602 -0.07362938 C15.11952825 -0.09449273 19.16470653 -0.10879299 23.20996094 -0.11816406 C27.38650817 -0.12922629 31.56252229 -0.16362266 35.73888111 -0.20333576 C38.95168543 -0.22949308 42.16436259 -0.2378551 45.37726402 -0.24144554 C46.91663906 -0.24631422 48.45600831 -0.25793635 49.99527931 -0.27648354 C52.15222914 -0.30085673 54.30779811 -0.29991424 56.46484375 -0.29296875 C58.30445427 -0.30176811 58.30445427 -0.30176811 60.18122864 -0.31074524 C64.04524925 0.26999426 65.65808978 1.47763815 68.42651367 4.17700195 C69.96533203 6.36157227 69.96533203 6.36157227 71.26635742 8.75512695 C72.0146582 10.10840088 72.0146582 10.10840088 72.77807617 11.48901367 C73.56311523 12.94331787 73.56311523 12.94331787 74.36401367 14.42700195 C75.50685993 16.49824507 76.65145114 18.56852615 77.79760742 20.63793945 C78.68488525 22.24620605 78.68488525 22.24620605 79.59008789 23.88696289 C82.62342667 29.32132521 85.77467146 34.68577133 88.92651367 40.05200195 C90.59443783 42.8917977 92.26065888 45.73215699 93.91088867 48.58227539 C94.89983624 50.27533834 95.90947866 51.95652986 96.94213867 53.62329102 C99.7592796 58.30599649 101.4617757 61.58049723 100.42651367 67.17700195 C98.82776576 70.82698814 96.84618469 74.19855805 94.80151367 77.61450195 C94.22264404 78.60861084 93.64377441 79.60271973 93.04736328 80.62695312 C91.8177664 82.73499842 90.58150219 84.83916676 89.33911133 86.93969727 C87.42856585 90.17352838 85.53972086 93.41910182 83.65698242 96.66918945 C80.78828515 101.61575191 77.91619246 106.56004716 75.0090332 111.48413086 C73.93469083 113.31226976 72.87357184 115.14823139 71.82446289 116.9909668 C71.31028809 117.88122559 70.79611328 118.77148438 70.26635742 119.6887207 C69.81510498 120.48109131 69.36385254 121.27346191 68.89892578 122.08984375 C67.21668257 124.47443954 65.93795115 125.67445288 63.42651367 127.17700195 C60.32167053 127.57141113 60.32167053 127.57141113 56.62597656 127.59692383 C55.95067398 127.60539337 55.2753714 127.61386292 54.5796051 127.62258911 C52.35260055 127.64594245 50.12628754 127.64698176 47.89916992 127.64575195 C46.34744491 127.65285453 44.79572253 127.66055367 43.2440033 127.66882324 C39.99332375 127.68226413 36.74288705 127.68383865 33.4921875 127.67797852 C29.33116815 127.67208227 25.17131556 127.702671 21.01052189 127.7430954 C17.80624642 127.76897427 14.60225184 127.77184972 11.39788628 127.76820374 C9.86410019 127.7698948 8.3303011 127.77953622 6.79661751 127.79734802 C4.64910442 127.81954463 2.50395193 127.80983688 0.35644531 127.79223633 C-1.47411659 127.79531799 -1.47411659 127.79531799 -3.34165955 127.79846191 C-7.48218595 127.00226473 -8.92130534 125.37686446 -11.57348633 122.17700195 C-13.20410156 119.6953125 -13.20410156 119.6953125 -14.63208008 117.0637207 C-15.17622559 116.0742041 -15.72037109 115.0846875 -16.28100586 114.06518555 C-16.85189941 113.00895996 -17.42279297 111.95273438 -18.01098633 110.86450195 C-19.24474341 108.61995594 -20.48047639 106.37649506 -21.71801758 104.1340332 C-22.35046387 102.98628418 -22.98291016 101.83853516 -23.63452148 100.65600586 C-26.74459003 95.07573933 -29.96619862 89.56211949 -33.19848633 84.05200195 C-34.06751587 82.57026489 -34.06751587 82.57026489 -34.95410156 81.05859375 C-35.50138916 80.12571533 -36.04867676 79.19283691 -36.61254883 78.23168945 C-37.12076172 77.35480469 -37.62897461 76.47791992 -38.15258789 75.57446289 C-39.03076835 74.09272198 -39.93885836 72.6277269 -40.89282227 71.19360352 C-42.73270432 68.35902047 -43.5635068 66.37160271 -43.73754883 62.9777832 C-41.9894471 57.27005506 -39.01086453 52.46377086 -35.94848633 47.36450195 C-34.9335176 45.6425635 -33.91856881 43.92061293 -32.90480042 42.19796753 C-31.84722959 40.40373286 -30.78490996 38.61236536 -29.72241211 36.82104492 C-27.57893311 33.19766921 -25.47528315 29.5522574 -23.38208008 25.8996582 C-23.04468811 25.31133713 -22.70729614 24.72301605 -22.35968018 24.11686707 C-20.73840238 21.28875741 -19.11851861 18.45985038 -17.4987793 15.63085938 C-8.54333013 0.06870991 -8.54333013 0.06870991 0 0 Z M0.42651367 14.17700195 C0.00466797 14.91523193 -0.41717773 15.65346191 -0.85180664 16.4140625 C-1.77788684 18.03470285 -2.70403844 19.65530281 -3.63137817 21.27522278 C-5.42830543 24.4156348 -7.21766102 27.55999098 -8.99389648 30.7121582 C-12.36254456 36.67380659 -15.76358756 42.5597043 -19.51879883 48.2902832 C-20.10113281 49.207854 -20.6834668 50.1254248 -21.28344727 51.07080078 C-22.36517462 52.76397373 -23.4842035 54.43408413 -24.64477539 56.07421875 C-26.18465856 58.53601248 -27.10808646 60.3057069 -27.57348633 63.17700195 C-26.29572738 67.62163025 -24.01251951 71.27467246 -21.57348633 75.17700195 C-20.44764851 77.16333625 -19.32521642 79.15160497 -18.20629883 81.1418457 C-17.04090719 83.13500434 -15.87162308 85.12589209 -14.69848633 87.11450195 C-14.12485352 88.09612305 -13.5512207 89.07774414 -12.96020508 90.08911133 C-11.78360773 92.09509189 -10.5749103 94.08256108 -9.33618164 96.05078125 C-7.57348633 99.17700195 -7.57348633 99.17700195 -6.36547852 102.79736328 C-4.75377842 106.85008757 -3.38208418 109.94921848 0.42651367 112.17700195 C9.1747574 114.2680337 18.48855224 113.45894626 27.39886475 113.06964111 C30.78333795 112.93587593 34.1690573 112.87712241 37.55541992 112.81176758 C44.18238836 112.66877989 50.80376145 112.45156112 57.42651367 112.17700195 C61.88384467 104.44314865 61.88384467 104.44314865 66.31079102 96.69189453 C69.56687671 90.99058863 72.88143464 85.40339034 76.52807617 79.9387207 C77.15367432 78.97466309 77.77927246 78.01060547 78.42382812 77.01733398 C79.60928363 75.20319643 80.83076983 73.41196368 82.09130859 71.64916992 C83.73271036 69.0925487 84.82415644 67.15830738 85.42651367 64.17700195 C84.17934508 60.00657977 81.86645891 56.74700741 79.42651367 53.17700195 C78.37062622 51.3278606 77.33264614 49.46837361 76.31323242 47.59887695 C71.35041043 38.7844269 66.37947981 29.97756281 61.17651367 21.30200195 C60.8061499 20.68421875 60.43578613 20.06643555 60.05419922 19.42993164 C58.44882306 16.64765485 58.44882306 16.64765485 56.42651367 14.17700195 C54.67722647 14.08335189 52.92415113 14.05955757 51.17236328 14.06347656 C49.49073341 14.06358986 49.49073341 14.06358986 47.77513123 14.06370544 C46.55536087 14.06886673 45.33559052 14.07402802 44.07885742 14.0793457 C42.21651207 14.08146812 42.21651207 14.08146812 40.31654358 14.08363342 C37.01045877 14.08829604 33.70444221 14.09728699 30.39837646 14.1083374 C27.02690217 14.11855368 23.65542084 14.12313151 20.28393555 14.12817383 C13.66477593 14.139228 7.04564874 14.15598459 0.42651367 14.17700195 Z " fill="#FFFFFF" transform="translate(221.573486328125,32.822998046875)"/>
<path d="M0 0 C0.69612396 -0.0065712 1.39224792 -0.0131424 2.10946655 -0.01991272 C4.41689151 -0.03965003 6.72425142 -0.05130846 9.03173828 -0.0612793 C9.81925602 -0.06535482 10.60677376 -0.06943035 11.41815567 -0.07362938 C15.58540841 -0.09449078 19.7526282 -0.10879284 23.91992188 -0.11816406 C28.2265962 -0.12923599 32.53275488 -0.16364417 36.83924675 -0.20333576 C40.14894581 -0.22946381 43.45852123 -0.23785241 46.76831436 -0.24144554 C48.35596326 -0.24632048 49.94360631 -0.25796032 51.53115463 -0.27648354 C53.75295815 -0.3007981 55.97341704 -0.29992507 58.1953125 -0.29296875 C59.45946991 -0.29883499 60.72362732 -0.30470123 62.02609253 -0.31074524 C65.81612255 0.26676198 66.90389138 1.20010572 69.22705078 4.17700195 C70.419517 6.03057994 71.54767867 7.92636467 72.62548828 9.84887695 C73.26341309 10.97745117 73.90133789 12.10602539 74.55859375 13.26879883 C75.23977503 14.4881837 75.92092673 15.70758511 76.60205078 16.92700195 C77.66544382 18.81388409 78.73127335 20.69937458 79.7973938 22.5847168 C80.52405636 23.86980861 81.25002391 25.15529366 81.97531128 26.44116211 C86.19474711 33.91344099 90.53772676 41.31252387 94.88476562 48.71118164 C95.4282666 49.63833984 95.97176758 50.56549805 96.53173828 51.52075195 C97.00595215 52.32706055 97.48016602 53.13336914 97.96875 53.96411133 C98.38398926 54.69436523 98.79922852 55.42461914 99.22705078 56.17700195 C99.6126416 56.80928711 99.99823242 57.44157227 100.39550781 58.09301758 C101.93434312 61.94959368 101.6810909 65.08618386 100.10058594 68.88330078 C99.57770996 69.79104248 99.05483398 70.69878418 98.51611328 71.6340332 C97.64539185 73.16664795 97.64539185 73.16664795 96.75708008 74.73022461 C96.12842041 75.80578613 95.49976074 76.88134766 94.85205078 77.98950195 C94.21372314 79.10373535 93.57539551 80.21796875 92.91772461 81.3659668 C91.03447937 84.64444495 89.13368804 87.91208516 87.22705078 91.17700195 C86.73221191 92.02987793 86.23737305 92.88275391 85.72753906 93.76147461 C83.30991441 97.9282441 80.86617178 102.07829555 78.39599609 106.21411133 C77.16236575 108.28562092 75.940306 110.36369059 74.71923828 112.44262695 C73.90962877 113.81258787 73.09974378 115.18238603 72.28955078 116.55200195 C71.92369873 117.1773584 71.55784668 117.80271484 71.1809082 118.44702148 C67.65101649 124.37723957 67.65101649 124.37723957 65.22705078 126.17700195 C62.17326355 126.59159851 62.17326355 126.59159851 58.37231445 126.64453125 C57.67925705 126.65781967 56.98619965 126.67110809 56.2721405 126.68479919 C53.97965068 126.72350785 51.68779525 126.73909167 49.39501953 126.7512207 C47.79942176 126.76594135 46.20382546 126.78082092 44.60823059 126.79585266 C41.26164708 126.82285241 37.91528587 126.83639395 34.56860352 126.84277344 C30.28715229 126.85363517 26.00806273 126.91530809 21.72730541 126.98948956 C18.43032461 127.03794837 15.13390964 127.05030306 11.83660316 127.05283546 C10.25889848 127.06005408 8.68119537 127.08048207 7.10384178 127.11453819 C-5.16828243 127.35921886 -5.16828243 127.35921886 -8.98239136 124.54922485 C-10.56708469 122.49486128 -11.68065296 120.52522735 -12.77294922 118.17700195 C-13.40910156 117.15477539 -14.04525391 116.13254883 -14.70068359 115.0793457 C-15.25046875 114.10094727 -15.80025391 113.12254883 -16.36669922 112.11450195 C-16.99833984 110.99897949 -17.62998047 109.88345703 -18.28076172 108.73413086 C-18.94508288 107.54856613 -19.6091397 106.36285324 -20.27294922 105.17700195 C-21.67663162 102.68336149 -23.08365638 100.19161996 -24.49169922 97.70043945 C-24.84546631 97.07350189 -25.1992334 96.44656433 -25.5637207 95.80062866 C-27.95999298 91.56862799 -30.42332888 87.38416211 -32.92919922 83.21606445 C-33.57695312 82.13325195 -34.22470703 81.05043945 -34.89208984 79.93481445 C-36.12003655 77.88951173 -37.3579055 75.85012422 -38.60693359 73.81762695 C-39.15671875 72.89723633 -39.70650391 71.9768457 -40.27294922 71.02856445 C-40.75763672 70.23272949 -41.24232422 69.43689453 -41.74169922 68.61694336 C-43.04350367 65.5368691 -43.14442428 63.49933068 -42.77294922 60.17700195 C-41.54223633 57.33813477 -41.54223633 57.33813477 -39.80029297 54.38012695 C-39.15471436 53.26839111 -38.50913574 52.15665527 -37.84399414 51.01123047 C-37.13302118 49.81636344 -36.42183455 48.62162352 -35.71044922 47.42700195 C-34.98693232 46.19068233 -34.26469973 44.95361028 -33.54370117 43.71582031 C-32.04875478 41.15285156 -30.54718191 38.59394436 -29.04052734 36.0378418 C-26.82923028 32.28102853 -24.64782953 28.50756416 -22.47607422 24.7277832 C-21.96500877 23.83852646 -21.96500877 23.83852646 -21.44361877 22.93130493 C-20.94160194 22.05760757 -20.94160194 22.05760757 -20.42944336 21.16625977 C-18.55159639 17.89813081 -16.6699194 14.63227082 -14.78466797 11.3684082 C-14.27379639 10.48354736 -13.7629248 9.59868652 -13.23657227 8.68701172 C-12.75357666 7.8587085 -12.27058105 7.03040527 -11.77294922 6.17700195 C-10.99914917 4.80983032 -10.99914917 4.80983032 -10.2097168 3.41503906 C-7.56856635 -0.69905205 -4.60921867 0.035938 0 0 Z M-4.02685547 19.8449707 C-5.00383282 22.26501089 -5.91782999 24.7112667 -6.77294922 27.17700195 C-8.04837708 29.6243035 -9.48355023 31.96606219 -10.91357422 34.32543945 C-11.60259521 35.52490212 -12.2875 36.72673874 -12.96826172 37.9309082 C-13.30631836 38.52661621 -13.644375 39.12232422 -13.99267578 39.73608398 C-14.33266602 40.33533691 -14.67265625 40.93458984 -15.02294922 41.55200195 C-16.06683259 43.38630955 -17.11131994 45.22026915 -18.15661621 47.05377197 C-19.13121331 48.76850285 -20.09773182 50.48781755 -21.06396484 52.20727539 C-22.07013938 53.95571926 -23.10841481 55.68746346 -24.21630859 57.37329102 C-25.53800775 59.29531553 -25.53800775 59.29531553 -26.77294922 62.17700195 C-25.72557367 66.25947308 -24.07064002 69.69413669 -21.93701172 73.30981445 C-21.36595703 74.28305664 -20.79490234 75.25629883 -20.20654297 76.2590332 C-19.60970703 77.26321289 -19.01287109 78.26739258 -18.39794922 79.30200195 C-17.56070312 80.72706055 -17.56070312 80.72706055 -16.70654297 82.1809082 C-15.47862098 84.26539387 -14.21813418 86.33090313 -12.93261719 88.38037109 C-11.18063716 91.28237211 -9.89501319 94.24011997 -8.6171875 97.37792969 C-6.12700176 103.01337757 -3.6340374 108.22981867 1.22705078 112.17700195 C9.03033616 115.15701959 17.51771532 114.59589265 25.72851562 114.18017578 C29.61800224 113.98871675 33.4856159 113.95464723 37.37939453 113.94458008 C39.85747011 113.89185826 42.33537718 113.83031715 44.81298828 113.7590332 C46.54746719 113.73459892 46.54746719 113.73459892 48.31698608 113.70967102 C54.3599581 113.42287135 54.3599581 113.42287135 59.24526978 110.21231079 C60.79409265 107.92439371 62.03596825 105.66684505 63.22705078 103.17700195 C64.00344749 101.81335394 64.78609539 100.45321928 65.57861328 99.09887695 C66.34036826 97.71040764 67.09805855 96.31970199 67.85205078 94.92700195 C70.68508388 89.73190459 73.56238573 84.57548599 76.57470703 79.48168945 C77.13013184 78.53583984 77.68555664 77.58999023 78.2578125 76.61547852 C79.34731512 74.76528279 80.44635849 72.92066636 81.55566406 71.08227539 C82.04921387 70.23955078 82.54276367 69.39682617 83.05126953 68.52856445 C83.71775513 67.41215576 83.71775513 67.41215576 84.39770508 66.27319336 C85.40901331 63.71708724 85.20170044 62.71223622 84.22705078 60.17700195 C82.87805734 57.55542864 81.49100871 54.99085815 80.03955078 52.42700195 C79.60827881 51.65855957 79.17700684 50.89011719 78.73266602 50.09838867 C74.80610526 43.13507705 70.80449789 36.21462988 66.78955078 29.30200195 C66.18667236 28.26205078 65.58379395 27.22209961 64.96264648 26.15063477 C64.39118896 25.17191406 63.81973145 24.19319336 63.23095703 23.18481445 C62.7237915 22.3148584 62.21662598 21.44490234 61.6940918 20.54858398 C61.20996826 19.76596191 60.72584473 18.98333984 60.22705078 18.17700195 C59.81222443 17.48170883 59.39739807 16.78641571 58.97000122 16.0700531 C57.36262368 13.96824876 57.36262368 13.96824876 54.79414368 13.60850525 C53.83010117 13.57817703 52.86605865 13.54784882 51.87280273 13.51660156 C50.23013176 13.45411476 50.23013176 13.45411476 48.55427551 13.3903656 C47.36992416 13.37022903 46.18557281 13.35009247 44.96533203 13.3293457 C43.74557175 13.30417374 42.52581146 13.27900177 41.26908875 13.25306702 C38.68435679 13.21086457 36.09940785 13.18054721 33.5144043 13.16113281 C29.56895719 13.11484693 25.63306328 12.97802489 21.68994141 12.83911133 C6.86755472 11.76769406 6.86755472 11.76769406 -4.02685547 19.8449707 Z " fill="#FFFFFF" transform="translate(362.77294921875,251.822998046875)"/>
<path d="M0 0 C0.93408188 -0.00291046 1.86816376 -0.00582092 2.83055115 -0.00881958 C4.79821293 -0.00551029 6.76592878 0.01751753 8.7331543 0.05908203 C11.74165814 0.11710196 14.74312829 0.10028195 17.75195312 0.07421875 C19.66800292 0.08669268 21.58403052 0.103474 23.5 0.125 C24.84391563 0.11619308 24.84391563 0.11619308 26.21498108 0.10720825 C30.79925871 0.24546629 32.57300853 0.42603882 36.04174805 3.64233398 C36.74855713 4.74778564 37.45536621 5.8532373 38.18359375 6.9921875 C38.85036133 8.02851318 39.51712891 9.06483887 40.20410156 10.13256836 C43.68299548 16.11691633 43.68299548 16.11691633 45.34179688 19.02319336 C46.43292838 20.92852562 47.54205176 22.82258185 48.65234375 24.71679688 C49.35659196 25.94206343 50.05975444 27.1679548 50.76171875 28.39453125 C51.71159668 30.04183228 51.71159668 30.04183228 52.68066406 31.72241211 C54.75485388 36.23502162 55.91594972 39.9272685 54.21484375 44.72363281 C53.456875 46.00898926 53.456875 46.00898926 52.68359375 47.3203125 C52.12542969 48.28582031 51.56726563 49.25132812 50.9921875 50.24609375 C50.09693359 51.72916016 50.09693359 51.72916016 49.18359375 53.2421875 C48.61769531 54.21542969 48.05179687 55.18867188 47.46875 56.19140625 C45.7387063 59.14542645 43.9701695 62.07204688 42.18359375 64.9921875 C41.55839844 66.02021484 40.93320312 67.04824219 40.2890625 68.10742188 C39.37060547 69.58952148 39.37060547 69.58952148 38.43359375 71.1015625 C37.881875 71.99327148 37.33015625 72.88498047 36.76171875 73.80371094 C35.18359375 75.9921875 35.18359375 75.9921875 32.18359375 77.9921875 C30.29995728 78.26634216 30.29995728 78.26634216 28.15869141 78.29858398 C27.35420563 78.31457138 26.54971985 78.33055878 25.72085571 78.34703064 C24.42237198 78.35507469 24.42237198 78.35507469 23.09765625 78.36328125 C22.20372162 78.37230972 21.30978699 78.3813382 20.38876343 78.39064026 C18.49749096 78.40514727 16.60616825 78.41403062 14.71484375 78.41772461 C11.82595929 78.42961602 8.9392145 78.47879118 6.05078125 78.52929688 C4.21225 78.53876186 2.37370564 78.54599654 0.53515625 78.55078125 C-0.32645111 78.57031357 -1.18805847 78.58984589 -2.07577515 78.60997009 C-6.29560297 78.57833803 -8.2230429 78.44147152 -11.671875 75.83007812 C-13.83084397 72.97308185 -15.70941167 70.14002918 -17.48046875 67.02734375 C-18.12757813 65.89748047 -18.7746875 64.76761719 -19.44140625 63.60351562 C-20.10811551 62.42059692 -20.77478184 61.23765402 -21.44140625 60.0546875 C-22.11518492 58.87525059 -22.78965878 57.69621054 -23.46484375 56.51757812 C-25.26839152 53.35235178 -27.06529385 50.18672801 -28.81640625 46.9921875 C-29.40212402 46.00017334 -29.9878418 45.00815918 -30.59130859 43.98608398 C-32.07739876 40.3543734 -31.91938563 38.72838951 -30.81640625 34.9921875 C-29.42114258 32.05126953 -29.42114258 32.05126953 -27.6484375 29 C-27.00197266 27.88238281 -26.35550781 26.76476562 -25.68945312 25.61328125 C-25.35034912 25.03819824 -25.01124512 24.46311523 -24.66186523 23.87060547 C-23.63923759 22.13472465 -22.63206407 20.39060042 -21.62695312 18.64453125 C-19.73172536 15.39289665 -17.84142075 12.16491196 -15.81640625 8.9921875 C-15.41058823 8.28760406 -15.0047702 7.58302063 -14.58665466 6.85708618 C-10.58216561 0.56451148 -7.24780138 -0.18216773 0 0 Z M-6.6875 19.87109375 C-7.99321707 22.46728605 -9.08644127 25.03884859 -9.97094727 27.80810547 C-10.81640625 29.9921875 -10.81640625 29.9921875 -12.33178711 32.30517578 C-14.01064537 34.91673307 -15.12164867 36.95837623 -15.81640625 39.9921875 C-14.55169987 44.5507145 -12.19930359 48.17852325 -9.62890625 52.1171875 C-7.38078125 55.7059375 -5.13265625 59.2946875 -2.81640625 62.9921875 C6.75359375 62.9921875 16.32359375 62.9921875 26.18359375 62.9921875 C29.46296875 57.454375 29.46296875 57.454375 32.80859375 51.8046875 C33.85394287 50.07182495 33.85394287 50.07182495 34.92041016 48.30395508 C35.71970947 46.9217981 35.71970947 46.9217981 36.53515625 45.51171875 C37.09025879 44.57432861 37.64536133 43.63693848 38.21728516 42.67114258 C39.45412629 40.03659339 39.45412629 40.03659339 38.50952148 37.43530273 C38.07196533 36.62907471 37.63440918 35.82284668 37.18359375 34.9921875 C36.78068115 34.23454102 36.37776855 33.47689453 35.96264648 32.69628906 C35.51864502 31.9328418 35.07464355 31.16939453 34.6171875 30.3828125 C34.13185547 29.54621094 33.64652344 28.70960938 33.14648438 27.84765625 C32.39141602 26.55794922 32.39141602 26.55794922 31.62109375 25.2421875 C31.11384766 24.36691406 30.60660156 23.49164063 30.08398438 22.58984375 C27.94331703 18.56408604 27.94331703 18.56408604 25.18359375 14.9921875 C7.50697734 12.04392955 7.50697734 12.04392955 -6.6875 19.87109375 Z " fill="#FFFFFF" transform="translate(357.81640625,137.0078125)"/>
<path d="M0 0 C0.89534958 -0.00807175 1.79069916 -0.01614349 2.71318054 -0.02445984 C4.61044374 -0.03830305 6.50773188 -0.04902414 8.4050293 -0.05688477 C11.30240269 -0.07408921 14.19863254 -0.11797152 17.09570312 -0.16210938 C18.93879369 -0.17223707 20.78189396 -0.18075293 22.625 -0.1875 C23.92211662 -0.21376213 23.92211662 -0.21376213 25.24543762 -0.24055481 C29.26255813 -0.22611734 31.45151726 -0.10254291 34.94873047 2.02514648 C36.79383455 4.00453921 38.1441215 5.69631274 39.40625 8.07421875 C39.80094482 8.80213623 40.19563965 9.53005371 40.60229492 10.2800293 C41.00552979 11.05000244 41.40876465 11.81997559 41.82421875 12.61328125 C42.68995655 14.23254675 43.5571632 15.85102772 44.42578125 17.46875 C45.07015137 18.674104 45.07015137 18.674104 45.72753906 19.90380859 C46.92053571 22.07252227 48.17157356 24.18387495 49.47265625 26.2890625 C49.8493042 26.90668457 50.22595215 27.52430664 50.61401367 28.16064453 C51.63549637 29.82213383 52.67271294 31.47392055 53.7109375 33.125 C55.36199054 37.07661945 54.90462637 39.07256372 54.01171875 43.23828125 C52.49291992 46.52392578 52.49291992 46.52392578 50.5546875 49.87109375 C50.21045242 50.47082001 49.86621735 51.07054626 49.5115509 51.68844604 C48.78637257 52.94690552 48.05578927 54.20226456 47.32006836 55.45458984 C46.20186275 57.35877879 45.10063302 59.2719915 44.00195312 61.1875 C35.81781961 75.33523082 35.81781961 75.33523082 32.01171875 77.23828125 C26.21646752 77.52404671 20.42003899 77.55207886 14.6184082 77.58837891 C12.677531 77.60493569 10.73671469 77.63222213 8.79614258 77.67041016 C5.9965861 77.72521465 3.19845837 77.74705789 0.3984375 77.76171875 C-0.46630692 77.78438812 -1.33105133 77.8070575 -2.22200012 77.83041382 C-6.45333362 77.81559909 -8.3853997 77.69395772 -11.84594727 75.07836914 C-14.00206649 72.22000618 -15.88158601 69.38559684 -17.65234375 66.2734375 C-18.29945313 65.14357422 -18.9465625 64.01371094 -19.61328125 62.84960938 C-20.27999051 61.66669067 -20.94665684 60.48374777 -21.61328125 59.30078125 C-22.28705992 58.12134434 -22.96153378 56.94230429 -23.63671875 55.76367188 C-25.44026652 52.59844553 -27.23716885 49.43282176 -28.98828125 46.23828125 C-29.57399902 45.24626709 -30.1597168 44.25425293 -30.76318359 43.23217773 C-32.24428611 39.61265598 -32.08117507 37.96134293 -30.98828125 34.23828125 C-29.68481445 31.49682617 -29.68481445 31.49682617 -28.0390625 28.71875 C-27.43771484 27.69587891 -26.83636719 26.67300781 -26.21679688 25.61914062 C-25.58451172 24.56533203 -24.95222656 23.51152344 -24.30078125 22.42578125 C-23.68783203 21.38357422 -23.07488281 20.34136719 -22.44335938 19.26757812 C-11.09333559 0.0941021 -11.09333559 0.0941021 0 0 Z M-7.26586914 19.93017578 C-8.762657 22.90862926 -10.06720319 25.87081825 -11.1315918 29.03100586 C-11.98828125 31.23828125 -11.98828125 31.23828125 -13.30786133 33.16625977 C-14.74828577 35.27522873 -15.55336751 36.71126804 -15.98828125 39.23828125 C-14.58381839 43.61915328 -12.251087 47.30444416 -9.80078125 51.17578125 C-8.8562207 52.75456055 -8.8562207 52.75456055 -7.89257812 54.36523438 C-5.28132162 59.05363838 -5.28132162 59.05363838 -1.98828125 63.23828125 C12.87816892 65.39625714 12.87816892 65.39625714 26.97460938 62.11914062 C30.21800238 58.80316819 31.51653087 54.52984901 33.01171875 50.23828125 C34.15734765 48.35795556 35.34155407 46.50023406 36.57421875 44.67578125 C38.60199683 41.76876674 38.60199683 41.76876674 38.73803711 38.41503906 C37.87468551 35.8275961 36.68624711 33.65317374 35.32421875 31.2890625 C34.79054688 30.35900391 34.256875 29.42894531 33.70703125 28.47070312 C33.14757812 27.50712891 32.588125 26.54355469 32.01171875 25.55078125 C31.45226562 24.57560547 30.8928125 23.60042969 30.31640625 22.59570312 C28.00729986 18.16779397 28.00729986 18.16779397 25.01171875 14.23828125 C6.88307904 11.13696065 6.88307904 11.13696065 -7.26586914 19.93017578 Z " fill="#FFFFFF" transform="translate(343.98828125,401.76171875)"/>
</svg>
